<?xml version="1.0" encoding="UTF-8" standalone="no"?>
<svg
   version="1.0"
   width="607.000000pt"
   height="411.000000pt"
   viewBox="0 0 607.000000 411.000000"
   preserveAspectRatio="xMidYMid meet"
   id="svg8"
   sodipodi:docname="sam.svg"
   inkscape:version="1.2.2 (b0a84865, 2022-12-01)"
   xmlns:inkscape="http://www.inkscape.org/namespaces/inkscape"
   xmlns:sodipodi="http://sodipodi.sourceforge.net/DTD/sodipodi-0.dtd"
   xmlns="http://www.w3.org/2000/svg"
   xmlns:svg="http://www.w3.org/2000/svg">
  <defs
     id="defs12" />
  <sodipodi:namedview
     id="namedview10"
     pagecolor="#ffffff"
     bordercolor="#000000"
     borderopacity="0.25"
     inkscape:showpageshadow="2"
     inkscape:pageopacity="0.0"
     inkscape:pagecheckerboard="0"
     inkscape:deskcolor="#d1d1d1"
     inkscape:document-units="pt"
     showgrid="false"
     inkscape:zoom="0.43065693"
     inkscape:cx="-80.110169"
     inkscape:cy="274"
     inkscape:window-width="1512"
     inkscape:window-height="922"
     inkscape:window-x="0"
     inkscape:window-y="32"
     inkscape:window-maximized="1"
     inkscape:current-layer="svg8" />
  <g
     transform="matrix(0.12033834,0,0,-0.17985795,-74.058857,606.18244)"
     fill="#000000"
     stroke="none"
     id="g6"
     inkscape:transform-center-x="-13.932203"
     inkscape:transform-center-y="-10.449153"
     style="fill:#ffffff">
    <path
       d="m 5270,3290 c -211,-6 -542,-36 -870,-80 -41,-5 -192,-23 -335,-40 -704,-80 -1051,-147 -1670,-323 -126,-36 -259,-73 -295,-81 l -65,-15 70,5 c 68,4 146,14 445,55 147,21 480,76 623,104 42,8 82,15 88,15 6,0 8,-21 4,-57 -3,-32 -12,-141 -20,-243 -16,-193 -70,-532 -87,-544 -7,-5 -369,-80 -488,-101 -111,-19 -125,-24 -128,-43 -6,-40 97,-39 358,3 148,24 220,29 220,15 0,-17 -69,-204 -135,-364 -90,-222 -126,-333 -115,-361 10,-28 54,-43 79,-28 9,5 24,25 33,44 37,73 188,471 227,598 23,74 43,137 45,139 5,4 37,9 371,51 132,16 357,42 500,56 247,25 508,61 623,85 53,12 73,39 30,41 -13,0 -95,4 -183,8 -290,14 -658,-14 -1077,-80 -106,-16 -204,-33 -217,-36 -23,-6 -24,-4 -17,28 29,137 52,374 62,623 5,114 11,179 18,182 28,9 402,59 711,95 552,63 950,119 1170,165 264,54 280,58 280,73 0,19 15,18 -255,11 z"
       id="path2"
       style="fill:#ffffff" />
    <path
       d="m 2660,2389 c -13,-6 -27,-14 -31,-20 -9,-15 -222,-65 -402,-94 -89,-15 -297,-51 -462,-80 -165,-30 -352,-63 -415,-74 -63,-11 -164,-29 -225,-40 -60,-11 -164,-27 -229,-36 -149,-21 -166,-27 -166,-60 0,-36 29,-39 190,-21 281,32 731,15 1020,-38 321,-60 661,-197 637,-259 -9,-24 -96,-65 -185,-87 -173,-44 -501,-70 -884,-70 -270,0 -408,7 -408,20 0,3 66,18 148,33 81,15 208,38 282,51 131,24 408,86 560,125 79,20 74,28 -7,11 -374,-75 -700,-134 -833,-150 -274,-33 -330,-48 -330,-90 0,-30 36,-47 135,-64 170,-30 408,-40 612,-27 332,22 515,49 703,102 187,54 250,95 250,163 0,34 -6,46 -48,85 -154,149 -608,271 -1006,271 -60,0 -107,2 -105,5 8,7 416,91 714,146 281,52 409,81 460,107 56,28 85,55 85,79 0,25 -17,29 -60,12 z"
       id="path4"
       style="fill:#ffffff" />
  </g>
  <path
     style="fill:#ffffff;stroke-width:2.32203"
     d="m 364.70862,514.5104 c -4.01221,-4.83441 -2.4252,-13.31996 15.45054,-82.61209 21.63905,-83.88 24.0647,-95.27626 20.56498,-96.61923 -1.58188,-0.60703 -18.33263,2.0755 -37.22388,5.96117 -38.99313,8.02033 -49.53163,8.73215 -51.54644,3.48163 -0.75625,-1.97075 -0.86665,-4.09154 -0.24533,-4.71284 0.62131,-0.62133 20.30324,-6.8951 43.73762,-13.94173 54.35432,-16.34412 53.87263,-16.10323 55.89523,-27.95118 2.69074,-15.76182 8.70634,-78.5899 11.20215,-116.99749 1.28634,-19.79533 2.9618,-45.27342 3.72324,-56.61795 l 1.38444,-20.62644 -5.42304,1.16611 c -2.98268,0.64135 -23.76375,5.94651 -46.18016,11.78924 -42.64314,11.11472 -117.29516,27.16697 -126.00247,27.09401 -2.78901,-0.0234 3.81086,-3.75742 14.66636,-8.29789 127.0509,-53.140895 161.94347,-63.336881 304.76347,-89.055185 48.85169,-8.796969 96.13569,-17.101039 105.07552,-18.453489 44.43077,-6.721649 108.15151,-10.272642 110.29661,-6.146547 1.67743,3.226562 -54.22983,20.607717 -96.90969,30.1285 -20.13401,4.491375 -73.70175,14.928908 -119.03946,23.194518 -45.33772,8.265609 -93.04446,17.294355 -106.01497,20.063882 l -23.58277,5.035501 -1.37414,29.33321 c -3.53037,75.36143 -6.54437,126.10562 -8.5002,143.11085 -1.17521,10.21807 -2.14468,21.34762 -2.15437,24.73233 l -0.0176,6.15407 16.83474,-4.39668 c 74.94755,-19.57379 149.3003,-28.18236 205.57682,-23.80166 43.05538,3.35153 11.41138,12.78463 -110.95394,33.07542 -59.37111,9.84501 -113.57685,20.15156 -115.35946,21.93417 -0.57214,0.57214 -5.03445,18.64969 -9.91624,40.17232 -10.48244,46.21454 -28.17209,115.14044 -34.17646,133.16507 -4.41446,13.25182 -9.37328,16.87726 -14.55108,10.6384 z"
     id="path518"
     transform="scale(0.75)"
     inkscape:export-filename="sam.png"
     inkscape:export-xdpi="62.387314"
     inkscape:export-ydpi="62.387314" />
</svg>
